<?xml version="1.0" encoding="UTF-8" standalone="no"?>
<svg
   id="Layer_2"
   data-name="Layer 2"
   viewBox="-66 0 406.76999 407.00248"
   version="1.1"
   sodipodi:docname="xxenta-x.svg"
   width="406.76999"
   height="407.0025"
   inkscape:version="1.4 (e7c3feb1, 2024-10-09)"
   xmlns:inkscape="http://www.inkscape.org/namespaces/inkscape"
   xmlns:sodipodi="http://sodipodi.sourceforge.net/DTD/sodipodi-0.dtd"
   xmlns:xlink="http://www.w3.org/1999/xlink"
   xmlns="http://www.w3.org/2000/svg"
   xmlns:svg="http://www.w3.org/2000/svg">
  <sodipodi:namedview
     id="namedview3"
     pagecolor="#505050"
     bordercolor="#eeeeee"
     borderopacity="1"
     inkscape:showpageshadow="0"
     inkscape:pageopacity="0"
     inkscape:pagecheckerboard="0"
     inkscape:deskcolor="#505050"
     showgrid="false"
     inkscape:zoom="0.3"
     inkscape:cx="73.333333"
     inkscape:cy="-156.66667"
     inkscape:window-width="1352"
     inkscape:window-height="663"
     inkscape:window-x="207"
     inkscape:window-y="128"
     inkscape:window-maximized="0"
     inkscape:current-layer="Layer_2" />
  <defs
     id="defs2">
    <style
       id="style1">
      .cls-1 {
        fill: url(#linear-gradient);
      }

      .cls-1, .cls-2 {
        stroke-width: 0px;
      }

      .cls-2 {
        fill: url(#linear-gradient-2);
      }
    </style>
    <linearGradient
       id="linear-gradient"
       x1="83.440002"
       y1="390.31"
       x2="316.73001"
       y2="623.59998"
       gradientUnits="userSpaceOnUse">
      <stop
         offset="0"
         stop-color="#3fe0ff"
         id="stop1" />
      <stop
         offset="1"
         stop-color="#0988d3"
         id="stop2" />
    </linearGradient>
    <linearGradient
       id="linear-gradient-2"
       x1="6322.5801"
       y1="19.15"
       x2="6691.2798"
       y2="387.85001"
       gradientTransform="matrix(-1,0,0,1,6644.32,0.0025)"
       xlink:href="#linear-gradient" />
  </defs>
  <path
     class="cls-2"
     d="m 229.54,19.1025 c 12.72,-12.73 29.4,-19.1 46.07,-19.1 16.68,0 33.35,6.37 46.08,19.1 25.44,25.46 25.44,66.73 0,92.2 l -46.08,46.1 -46.07,46.11 c 25.44,-25.47 25.44,-66.74 0,-92.2 -25.44,-25.47 -66.71,-25.47 -92.15,0 l 46.07,-46.11 z m -276.46,368.8 c 12.73,12.73 29.4,19.1 46.08,19.1 16.68,0 33.35,-6.37 46.07,-19.1 12.72,-12.73 19.08,-29.41 19.08,-46.1 0,-16.69 -6.36,-33.37 -19.08,-46.11 -12.72,-12.72 -29.39,-19.09 -46.07,-19.09 -16.68,0 -33.35,6.37 -46.08,19.09 -25.44,25.47 -25.44,66.74 0,92.2 z m 368.61,-92.2 -92.15,-92.19 c -25.44,25.46 -38.17,58.83 -38.17,92.2 0,33.36 12.73,66.73 38.17,92.19 12.72,12.73 29.39,19.1 46.07,19.1 16.68,0 33.35,-6.37 46.08,-19.1 12.73,-12.73 19.08,-29.41 19.08,-46.1 0,-16.69 -6.35,-33.37 -19.08,-46.11 z M 45.24,149.4825 c 33.35,0 66.7,-12.72 92.15,-38.18 l -92.15,-92.2 c -25.44,-25.47 -66.71,-25.47 -92.15,0 -12.73,12.72 -19.09,29.41 -19.09,46.1 0,16.69 6.35,33.37 19.08,46.11 25.45,25.46 58.8,38.18 92.15,38.18 z"
     id="path3"
     style="fill:url(#linear-gradient-2)" />
</svg>
