<?xml version="1.0" encoding="UTF-8"?>
<svg id="Layer_2" data-name="Layer 2" xmlns="http://www.w3.org/2000/svg" xmlns:xlink="http://www.w3.org/1999/xlink" viewBox="0 0 406.78 535.59">
  <defs>
    <style>
      .cls-1 {
        fill: url(#linear-gradient);
      }

      .cls-1, .cls-2 {
        stroke-width: 0px;
      }

      .cls-2 {
        fill: url(#linear-gradient-2);
      }
    </style>
    <linearGradient id="linear-gradient" x1="83.44" y1="390.31" x2="316.73" y2="623.6" gradientUnits="userSpaceOnUse">
      <stop offset="0" stop-color="#3fe0ff"/>
      <stop offset="1" stop-color="#0988d3"/>
    </linearGradient>
    <linearGradient id="linear-gradient-2" x1="6322.58" y1="19.15" x2="6691.28" y2="387.85" gradientTransform="translate(6710.32) rotate(-180) scale(1 -1)" xlink:href="#linear-gradient"/>
  </defs>
  <g id="Layer_1-2" data-name="Layer 1">
    <g>
      <path class="cls-1" d="m32.02,489.93l7.29-11.89c1.98-3.24,3.96-5.45,5.94-6.62,1.98-1.17,4.46-1.76,7.43-1.76,2.79,0,5.99.77,9.59,2.3l-20.52,30.8,19.71,31.07c-2.7,1.08-5.54,1.62-8.51,1.62-3.6,0-6.41-.54-8.44-1.62-2.03-1.08-3.85-2.93-5.47-5.54l-8.1-12.7-11.07,18.51H.56l20.52-32.02-18.9-30.53c4.05-1.35,7.74-2.03,11.07-2.03,2.7,0,4.97.59,6.82,1.76,1.84,1.17,3.49,3.11,4.93,5.81l7.02,12.83Zm70.07,14.32l-17.28,29.86h-20.25l26.73-45.12-23.76-42.96c4.5-1.98,8.42-2.97,11.75-2.97,4.95,0,8.55,2.21,10.8,6.62l13.1,24.45,13.37-22.97c1.8-3.06,3.62-5.18,5.47-6.35,1.84-1.17,4.21-1.76,7.09-1.76,3.15,0,6.43.9,9.86,2.7l-25.11,42.55,26.33,45.26c-3.78,1.35-7.34,2.03-10.67,2.03-3.15,0-5.74-.61-7.76-1.82-2.03-1.22-3.94-3.35-5.74-6.42l-13.91-23.1Zm49.45,19.96c-6.59-6.6-9.89-14.56-9.89-23.88s3.3-17.25,9.89-23.85c6.59-6.62,14.55-9.93,23.87-9.93s17.24,3.31,23.83,9.93c6.61,6.6,9.92,14.54,9.92,23.85h-16.88c0-4.64-1.66-8.61-4.98-11.91-3.3-3.32-7.26-4.98-11.9-4.98s-8.64,1.66-11.93,4.98c-3.3,3.3-4.94,7.27-4.94,11.91s1.65,8.64,4.94,11.94c3.3,3.3,7.27,4.95,11.93,4.95v16.89c-9.32,0-17.27-3.3-23.87-9.89Zm67.05,9.89v-33.77c0-9.3,3.3-17.25,9.89-23.85,6.59-6.62,14.55-9.93,23.87-9.93s17.24,3.31,23.83,9.93c6.61,6.6,9.92,14.54,9.92,23.85v33.77h-16.88v-33.77c0-4.64-1.66-8.61-4.98-11.91-3.3-3.32-7.26-4.98-11.9-4.98s-8.64,1.66-11.93,4.98c-3.3,3.3-4.94,7.27-4.94,11.91v33.77h-16.88Zm86.83-9.89c-6.59-6.6-9.89-14.56-9.89-23.88v-67.54h16.88v33.77h16.88v16.89h-16.88v16.89c0,4.66,1.65,8.64,4.94,11.94,3.3,3.3,7.27,4.95,11.93,4.95v16.89c-9.32,0-17.27-3.3-23.87-9.89Zm43.18,0c-6.59-6.6-9.89-14.56-9.89-23.88s3.3-17.25,9.89-23.85c6.59-6.62,14.55-9.93,23.87-9.93s17.24,3.31,23.83,9.93c6.61,6.6,9.92,14.54,9.92,23.85v33.77h-16.88v-33.77c0-4.64-1.66-8.61-4.98-11.91-3.3-3.32-7.26-4.98-11.9-4.98s-8.64,1.66-11.93,4.98c-3.3,3.3-4.94,7.27-4.94,11.91s1.65,8.64,4.94,11.94c3.3,3.3,7.27,4.95,11.93,4.95v16.89c-9.32,0-17.27-3.3-23.87-9.89Z"/>
      <path class="cls-2" d="m295.54,19.1C308.26,6.37,324.94,0,341.61,0c16.68,0,33.35,6.37,46.08,19.1,25.44,25.46,25.44,66.73,0,92.2l-46.08,46.1-46.07,46.11c25.44-25.47,25.44-66.74,0-92.2-25.44-25.47-66.71-25.47-92.15,0l46.07-46.11,46.08-46.1ZM19.08,387.9c12.73,12.73,29.4,19.1,46.08,19.1s33.35-6.37,46.07-19.1c12.72-12.73,19.08-29.41,19.08-46.1s-6.36-33.37-19.08-46.11c-12.72-12.72-29.39-19.09-46.07-19.09s-33.35,6.37-46.08,19.09c-25.44,25.47-25.44,66.74,0,92.2Zm368.61-92.2l-92.15-92.19c-25.44,25.46-38.17,58.83-38.17,92.2,0,33.36,12.73,66.73,38.17,92.19,12.72,12.73,29.39,19.1,46.07,19.1,16.68,0,33.35-6.37,46.08-19.1,12.73-12.73,19.08-29.41,19.08-46.1s-6.35-33.37-19.08-46.11ZM111.24,149.48c33.35,0,66.7-12.72,92.15-38.18L111.24,19.1c-25.44-25.47-66.71-25.47-92.15,0C6.36,31.82,0,48.51,0,65.2s6.35,33.37,19.08,46.11c25.45,25.46,58.8,38.18,92.15,38.18Z"/>
    </g>
  </g>
</svg>